<?xml version="1.0" standalone="no"?>
<svg viewBox="0 0 200 200" xmlns="http://www.w3.org/2000/svg">
  <path fill="#D9EFF8" d="M49,-75.6C63.4,-66.9,75.1,-53.3,81.9,-37.6C88.8,-22,90.8,-4.3,87.7,12.2C84.6,28.6,76.4,43.9,65.5,57C54.5,70.2,40.8,81.2,24.8,87.3C8.7,93.4,-9.7,94.5,-25.8,89.2C-41.9,83.8,-55.8,72.1,-66.1,58.3C-76.4,44.5,-83.2,28.7,-86.5,11.9C-89.9,-5,-89.7,-23,-83.3,-38.5C-76.9,-54,-64.2,-67,-49.2,-75.4C-34.3,-83.9,-17.1,-87.7,0.1,-87.8C17.3,-87.9,34.5,-84.3,49,-75.6Z" transform="translate(100 100)" />
</svg>
