<svg xmlns="http://www.w3.org/2000/svg" xmlns:xlink="http://www.w3.org/1999/xlink" viewBox="0 0 408.26 187.7"><defs><style>.cls-1{fill:none;}.cls-2{isolation:isolate;}.cls-3{fill:#212121;}.cls-4{clip-path:url(#clip-path);}.cls-5{mix-blend-mode:color-dodge;}.cls-6{fill:url(#linear-gradient);}.cls-7{fill:url(#linear-gradient-2);}.cls-8{fill:url(#linear-gradient-3);}.cls-9{fill:#009fef;}.cls-10{fill:#007aef;}.cls-11{fill:#00caef;}.cls-12{fill:url(#linear-gradient-4);}.cls-13{fill:url(#linear-gradient-5);}.cls-14{fill:url(#linear-gradient-6);}.cls-15{fill:url(#linear-gradient-7);}.cls-16{fill:url(#linear-gradient-8);}.cls-17{fill:url(#linear-gradient-9);}</style><clipPath id="clip-path"><path class="cls-1" d="M140.48,86.77h5.46v85.45H121.3V86.77h19.18Zm-38-15.87a40.84,40.84,0,0,1,2.9,15.21,40.36,40.36,0,0,1-2.86,15,40.77,40.77,0,0,1-8,12.78,39.19,39.19,0,0,1-12.33,9,36.43,36.43,0,0,1-15.71,3.37H38.41v46H13.77V49.63q0-4,3.84-4H66A37.1,37.1,0,0,1,81.89,49a39.79,39.79,0,0,1,12.49,9A41.2,41.2,0,0,1,102.52,70.9ZM80.52,86a18.18,18.18,0,0,0-1.36-6.88,19.67,19.67,0,0,0-3.76-6,18.85,18.85,0,0,0-5.73-4.23,16.38,16.38,0,0,0-7.26-1.63h-24V104.7h24a16.84,16.84,0,0,0,7.18-1.54A18.27,18.27,0,0,0,75.35,99a19.18,19.18,0,0,0,3.81-6A18.62,18.62,0,0,0,80.52,86Zm60.13-36.9H126.33q-5,0-5,5.13V67q0,5.48,5.12,5.48h14.32a4.57,4.57,0,0,0,3.83-1.76A6,6,0,0,0,145.94,67V54.22a4.9,4.9,0,0,0-1.45-3.85A5.62,5.62,0,0,0,140.65,49.09Zm118.4,59.59a59,59,0,0,0-2.76-17.79,43.37,43.37,0,0,0-8.14-14.83,38.1,38.1,0,0,0-13.22-9.94A42.3,42.3,0,0,0,217,62.5a43.74,43.74,0,0,0-11.34,1.36,39.07,39.07,0,0,0-8.95,3.58,32.12,32.12,0,0,0-6.78,5c-.94.93-1.8,1.86-2.6,2.8V69.78A5.83,5.83,0,0,0,181.54,64h-13a5.82,5.82,0,0,0-5.82,5.83V172.22h24.63V108a19.64,19.64,0,0,1,2.39-9.33,24.39,24.39,0,0,1,5.8-7,26.41,26.41,0,0,1,7.71-4.48,23.78,23.78,0,0,1,18.2.47,21.62,21.62,0,0,1,7.29,5.45,24.34,24.34,0,0,1,4.48,7.72,25.91,25.91,0,0,1,1.19,4.68v66.72h24.64V108.69Z"/></clipPath><linearGradient id="linear-gradient" x1="-173.65" y1="-7.62" x2="124.28" y2="-7.62" gradientUnits="userSpaceOnUse"><stop offset="0"/><stop offset="0.08" stop-color="#000608"/><stop offset="0.2" stop-color="#00151c"/><stop offset="0.34" stop-color="#002e3f"/><stop offset="0.5" stop-color="#00516e"/><stop offset="0.68" stop-color="#007daa"/><stop offset="0.72" stop-color="#0088b9"/><stop offset="0.93" stop-color="#0bf"/></linearGradient><linearGradient id="linear-gradient-2" x1="-173.65" y1="17.36" x2="139.11" y2="17.36" xlink:href="#linear-gradient"/><linearGradient id="linear-gradient-3" x1="-173.65" y1="30.59" x2="202.83" y2="30.59" xlink:href="#linear-gradient"/><linearGradient id="linear-gradient-4" x1="-173.65" y1="188.55" x2="175.31" y2="188.55" xlink:href="#linear-gradient"/><linearGradient id="linear-gradient-5" x1="300.18" y1="101.04" x2="384.4" y2="107.51" gradientUnits="userSpaceOnUse"><stop offset="0.13" stop-color="#3eb149"/><stop offset="1" stop-color="#204296"/></linearGradient><linearGradient id="linear-gradient-6" x1="367.68" y1="165.7" x2="277.62" y2="70.29" gradientUnits="userSpaceOnUse"><stop offset="0" stop-color="#204296"/><stop offset="0.09" stop-color="#214793"/><stop offset="0.19" stop-color="#255589"/><stop offset="0.3" stop-color="#2b6c79"/><stop offset="0.41" stop-color="#348c63"/><stop offset="0.51" stop-color="#3eb149"/><stop offset="0.55" stop-color="#3aa452"/><stop offset="0.69" stop-color="#2f7a6f"/><stop offset="0.82" stop-color="#275b84"/><stop offset="0.92" stop-color="#224991"/><stop offset="1" stop-color="#204296"/></linearGradient><linearGradient id="linear-gradient-7" x1="15.19" y1="34.09" x2="75.38" y2="8.72" xlink:href="#linear-gradient-6"/><linearGradient id="linear-gradient-8" x1="11.79" y1="30.33" x2="74.14" y2="5.23" xlink:href="#linear-gradient-6"/><linearGradient id="linear-gradient-9" x1="19.25" y1="43.71" x2="79.44" y2="18.33" xlink:href="#linear-gradient-6"/></defs><g class="cls-2"><g id="Layer_1" data-name="Layer 1"><polygon class="cls-3" points="126.33 86.77 121.3 86.77 121.3 91.97 121.3 167.1 121.3 172.22 126.42 172.22 140.57 172.22 145.94 172.22 145.94 167.1 145.94 91.97 145.94 86.77 140.48 86.77 126.33 86.77"/><path class="cls-3" d="M94.38,58a39.79,39.79,0,0,0-12.49-9A37.1,37.1,0,0,0,66,45.62H17.61q-3.84,0-3.84,4V172.22H38.41v-46H66.49a36.43,36.43,0,0,0,15.71-3.37,39.19,39.19,0,0,0,12.33-9,40.77,40.77,0,0,0,8-12.78,40.36,40.36,0,0,0,2.86-15A41.38,41.38,0,0,0,94.38,58ZM79.16,93a19.18,19.18,0,0,1-3.81,6,18.27,18.27,0,0,1-5.76,4.14,16.84,16.84,0,0,1-7.18,1.54h-24V67.27h24a16.38,16.38,0,0,1,7.26,1.63,18.85,18.85,0,0,1,5.73,4.23,19.67,19.67,0,0,1,3.76,6A18.18,18.18,0,0,1,80.52,86,18.62,18.62,0,0,1,79.16,93Z"/><path class="cls-3" d="M140.65,49.09H126.33q-5,0-5,5.13V67q0,5.48,5.12,5.48h14.32a4.57,4.57,0,0,0,3.83-1.76A6,6,0,0,0,145.94,67V54.22a4.9,4.9,0,0,0-1.45-3.85A5.62,5.62,0,0,0,140.65,49.09Z"/><path class="cls-3" d="M259.05,108.68a59,59,0,0,0-2.76-17.79,43.37,43.37,0,0,0-8.14-14.83,38.1,38.1,0,0,0-13.22-9.94A42.3,42.3,0,0,0,217,62.5a43.74,43.74,0,0,0-11.34,1.36,39.07,39.07,0,0,0-8.95,3.58,32.12,32.12,0,0,0-6.78,5c-.94.93-1.8,1.86-2.6,2.8V69.78A5.83,5.83,0,0,0,181.54,64h-13a5.82,5.82,0,0,0-5.82,5.83V172.22h24.63V108a19.64,19.64,0,0,1,2.39-9.33,24.39,24.39,0,0,1,5.8-7,26.41,26.41,0,0,1,7.71-4.48,23.78,23.78,0,0,1,18.2.47,21.62,21.62,0,0,1,7.29,5.45,24.34,24.34,0,0,1,4.48,7.72,25.91,25.91,0,0,1,1.19,4.68v66.72h24.64V108.69Z"/><g class="cls-4"><g class="cls-5"><path class="cls-6" d="M-171.82,1.73A1.82,1.82,0,0,0-170.11.51H107.65l14-14a1.81,1.81,0,0,0,2.06-.35,1.8,1.8,0,0,0,0-2.57,1.8,1.8,0,0,0-2.57,0,1.81,1.81,0,0,0-.35,2.06L107.15-.7H-170.11a1.82,1.82,0,0,0-1.71-1.22A1.83,1.83,0,0,0-173.65-.1,1.83,1.83,0,0,0-171.82,1.73Z"/><path class="cls-7" d="M-171.82,12.28a1.81,1.81,0,0,0,1.71-1.21H123.24l12.41,12.41a1.82,1.82,0,1,0,2.92-.51,1.79,1.79,0,0,0-2.06-.34L123.74,9.86H-170.11a1.82,1.82,0,0,0-1.71-1.22,1.83,1.83,0,0,0-1.83,1.82A1.82,1.82,0,0,0-171.82,12.28Z"/><path class="cls-8" d="M-171.82,22.84a1.82,1.82,0,0,0,1.71-1.21H116.2L136.56,42h44.5l19.18-19.18a1.81,1.81,0,0,0,2.06-.34,1.82,1.82,0,0,0-2.58-2.58,1.81,1.81,0,0,0-.34,2.06L180.56,40.78h-43.5L116.7,20.41H-170.11a1.82,1.82,0,0,0-1.71-1.21A1.82,1.82,0,0,0-173.65,21,1.82,1.82,0,0,0-171.82,22.84Z"/><path class="cls-9" d="M-171.82,41.57a1.82,1.82,0,0,0,1.71-1.22H110.67L127.26,57h58.32l16.59-16.6H213a1.83,1.83,0,1,0,0-1.21h-11.3L185.08,55.73H127.76L111.17,39.14H-170.11a1.82,1.82,0,0,0-1.71-1.22,1.83,1.83,0,0,0-1.83,1.83A1.83,1.83,0,0,0-171.82,41.57Z"/><path class="cls-9" d="M-171.82,68.09a1.82,1.82,0,0,0,1.71-1.21H83.33L93.64,77.19h35.68a1.82,1.82,0,1,0,0-1.22H94.14L83.84,65.66H-170.11a1.82,1.82,0,0,0-1.71-1.21,1.82,1.82,0,0,0-1.83,1.82A1.82,1.82,0,0,0-171.82,68.09Z"/><path class="cls-10" d="M-171.82,83.18A1.82,1.82,0,0,0-170.11,82H71.19a1.81,1.81,0,0,0,1.71,1.22,1.83,1.83,0,0,0,0-3.65,1.81,1.81,0,0,0-1.71,1.22h-241.3a1.82,1.82,0,0,0-1.71-1.22,1.83,1.83,0,0,0-1.83,1.82A1.83,1.83,0,0,0-171.82,83.18Z"/><path class="cls-11" d="M-171.82,95.24A1.82,1.82,0,0,0-170.11,94H87.82l6.49-6.49a1.82,1.82,0,1,0-.86-.86l-6.13,6.13H-170.11a1.82,1.82,0,0,0-1.71-1.21,1.82,1.82,0,0,0-1.83,1.82A1.82,1.82,0,0,0-171.82,95.24Z"/><path class="cls-11" d="M-171.82,107.31a1.82,1.82,0,0,0,1.71-1.22H122.74l17.34-17.34h40l4.6-4.6a1.82,1.82,0,0,0,2.07-2.92,1.83,1.83,0,0,0-2.58,0,1.81,1.81,0,0,0-.35,2.06l-4.24,4.24h-40l-17.35,17.35H-170.11a1.82,1.82,0,0,0-1.71-1.22,1.83,1.83,0,0,0-1.83,1.83A1.83,1.83,0,0,0-171.82,107.31Z"/><path class="cls-9" d="M-171.82,119.38a1.82,1.82,0,0,0,1.71-1.22H127.26l19.11-19.1h43.74l11.56,11.56h43.59a1.82,1.82,0,1,0,0-1.22H202.17L190.61,97.84H145.86L126.76,117H-170.11a1.82,1.82,0,0,0-1.71-1.22,1.83,1.83,0,0,0-1.83,1.82A1.83,1.83,0,0,0-171.82,119.38Z"/><path class="cls-11" d="M-171.82,131.44a1.82,1.82,0,0,0,1.71-1.22H127.26l18.85-18.85h26.73l3.49,3.49a1.81,1.81,0,0,0,.35,2.06,1.82,1.82,0,1,0,2.57-2.58,1.8,1.8,0,0,0-2.06-.34l-3.84-3.84H145.61L126.76,129H-170.11a1.81,1.81,0,0,0-1.71-1.21,1.82,1.82,0,0,0-1.83,1.82A1.82,1.82,0,0,0-171.82,131.44Z"/><path class="cls-9" d="M249.93,135.84a1.81,1.81,0,0,0-2.06-.35l-8-8h-85l-13.57,13.58H-170.11a1.82,1.82,0,0,0-1.71-1.22,1.83,1.83,0,0,0-1.83,1.83,1.83,1.83,0,0,0,1.83,1.82,1.82,1.82,0,0,0,1.71-1.22h312l13.58-13.57h84l7.63,7.63a1.81,1.81,0,1,0,2.92-.51Z"/><path class="cls-11" d="M241.77,142.78l-3.21-3.21H184.07L170.5,153.15H-170.11a1.82,1.82,0,0,0-1.71-1.22,1.82,1.82,0,0,0-1.83,1.82,1.82,1.82,0,0,0,1.83,1.82,1.82,1.82,0,0,0,1.71-1.21H171l13.58-13.58h53.48l2.86,2.86a1.81,1.81,0,0,0,2.92,2.06,1.81,1.81,0,0,0-2.07-2.92Z"/><path class="cls-12" d="M172.71,197.59,152.4,177.28H-170.11a1.82,1.82,0,0,0-1.71-1.22,1.83,1.83,0,0,0-1.83,1.82,1.83,1.83,0,0,0,1.83,1.83,1.82,1.82,0,0,0,1.71-1.22h322l19.95,20a1.81,1.81,0,0,0,.34,2.06,1.82,1.82,0,1,0,2.58-2.58A1.8,1.8,0,0,0,172.71,197.59Z"/></g><path class="cls-9" d="M60.44,60a1.82,1.82,0,0,0-2.07-.34l-9-9.05H-170.11a1.82,1.82,0,0,0-1.71-1.22,1.83,1.83,0,0,0-1.83,1.83A1.83,1.83,0,0,0-171.82,53a1.82,1.82,0,0,0,1.71-1.22H48.82l8.7,8.69A1.82,1.82,0,1,0,60.44,60Z"/><path class="cls-9" d="M182.75,157.27a1.81,1.81,0,0,0-2.92,2.07L174,165.21H-170.11a1.82,1.82,0,0,0-1.71-1.22,1.83,1.83,0,0,0-1.83,1.83,1.83,1.83,0,0,0,1.83,1.82,1.82,1.82,0,0,0,1.71-1.22H172.74l1.69,0,6.26-6.26a1.81,1.81,0,0,0,2.06-.34A1.83,1.83,0,0,0,182.75,157.27Z"/></g><path class="cls-13" d="M344.27,118a9.27,9.27,0,0,1-13.09-13.13l27.31-26.67c-7.88-7.88-19-7.82-28.3-2.46A39.8,39.8,0,0,0,313.43,95c-4.33,10.8-1,22,6.7,30.41.61.68,1.25,1.33,1.91,2h0c32,27,80.33-7.19,61.76-47.19l-.34-.48Z"/><path class="cls-14" d="M340.87,159.85h-.46a58.19,58.19,0,0,1-15.75-3.7A53.13,53.13,0,0,1,306,143.79a57,57,0,0,1-14.57-24.88,55.54,55.54,0,0,1-2-14,53.07,53.07,0,0,1,1.61-14,54.05,54.05,0,0,1,5.37-13.34,55.61,55.61,0,0,1,9.26-12,52.74,52.74,0,0,1,10.18-7.89,58.28,58.28,0,0,1,5.86-3,61.49,61.49,0,1,0,72.86,64C391.2,139.14,376.3,159.85,340.87,159.85Z"/><polygon class="cls-1" points="36.76 26.91 36.76 26.91 43.15 37.27 36.76 26.91"/><path class="cls-15" d="M42.06,26.57a7.61,7.61,0,0,0,4.58-2.71,7.75,7.75,0,0,0,1.62-4.78,7.35,7.35,0,0,0-2.44-5.65A9.86,9.86,0,0,0,39,11.22H28.26L30.62,15h8.3a4.6,4.6,0,0,1,3.43,1,4,4,0,0,1,1.09,3,4,4,0,0,1-1.09,3A4.74,4.74,0,0,1,39,23.12H34.42l8.73,14.15h5.72Z"/><path class="cls-16" d="M26.82,33.52A8.37,8.37,0,0,1,20.52,31a9.24,9.24,0,0,1-2.45-6.7,9.27,9.27,0,0,1,2.45-6.71A8.36,8.36,0,0,1,26.74,15h1.89l-2.35-3.8a12.68,12.68,0,0,0-8.72,3.67,12.54,12.54,0,0,0-3.79,9.37,12.49,12.49,0,0,0,3.79,9.35,12.78,12.78,0,0,0,9.26,3.67,13.39,13.39,0,0,0,7.25-2,11,11,0,0,0,2-1.67l-2.45-4A7.14,7.14,0,0,1,26.82,33.52Z"/><path class="cls-17" d="M78.7,11.55V37.08H74.51V19.59L66.72,37.08h-2.9L56,19.59V37.08H51.8V11.55h4.52l9,20,8.92-20Z"/></g></g></svg>