<svg id="Layer_1" data-name="Layer 1" xmlns="http://www.w3.org/2000/svg" xmlns:xlink="http://www.w3.org/1999/xlink" viewBox="0 0 250 207"><defs><style>.cls-1{fill:url(#linear-gradient);}.cls-2{fill:url(#linear-gradient-2);}.cls-3{fill:#b0d0ff;}.cls-4{fill:url(#linear-gradient-3);}.cls-5{fill:url(#linear-gradient-4);}.cls-6{fill:url(#linear-gradient-5);}.cls-7{fill:url(#linear-gradient-6);}.cls-8{fill:url(#linear-gradient-7);}.cls-9{fill:url(#linear-gradient-8);}.cls-10{fill:url(#linear-gradient-9);}.cls-11{fill:#fff;}.cls-12{fill:url(#linear-gradient-10);}.cls-13{fill:url(#linear-gradient-11);}.cls-14{fill:url(#linear-gradient-12);}.cls-15{fill:url(#linear-gradient-13);}.cls-16{fill:url(#linear-gradient-14);}</style><linearGradient id="linear-gradient" x1="75.79" y1="145.34" x2="174.21" y2="145.34" gradientUnits="userSpaceOnUse"><stop offset="0" stop-color="#246ddf"/><stop offset="0.15" stop-color="#256bd7"/><stop offset="0.68" stop-color="#2663bd"/><stop offset="1" stop-color="#2760b3"/></linearGradient><linearGradient id="linear-gradient-2" x1="76.12" y1="145.33" x2="125.33" y2="145.33" xlink:href="#linear-gradient"/><linearGradient id="linear-gradient-3" x1="166.47" y1="76.45" x2="169.9" y2="76.45" xlink:href="#linear-gradient"/><linearGradient id="linear-gradient-4" x1="149.33" y1="76.45" x2="152.76" y2="76.45" xlink:href="#linear-gradient"/><linearGradient id="linear-gradient-5" x1="132.19" y1="76.45" x2="135.62" y2="76.45" xlink:href="#linear-gradient"/><linearGradient id="linear-gradient-6" x1="115.05" y1="76.45" x2="118.48" y2="76.45" xlink:href="#linear-gradient"/><linearGradient id="linear-gradient-7" x1="97.91" y1="76.45" x2="101.34" y2="76.45" xlink:href="#linear-gradient"/><linearGradient id="linear-gradient-8" x1="80.77" y1="76.45" x2="84.19" y2="76.45" xlink:href="#linear-gradient"/><linearGradient id="linear-gradient-9" x1="155.84" y1="49.3" x2="202.19" y2="49.3" xlink:href="#linear-gradient"/><linearGradient id="linear-gradient-10" x1="100.56" y1="49.3" x2="146.92" y2="49.3" gradientUnits="userSpaceOnUse"><stop offset="0" stop-color="#ffa243"/><stop offset="0.99" stop-color="#ffd25f"/></linearGradient><linearGradient id="linear-gradient-11" x1="54.68" y1="23.61" x2="87.94" y2="23.61" gradientUnits="userSpaceOnUse"><stop offset="0" stop-color="#75f1b2"/><stop offset="0.26" stop-color="#4ee1a8"/><stop offset="0.59" stop-color="#24d09d"/><stop offset="0.85" stop-color="#0ac696"/><stop offset="1" stop-color="#00c293"/></linearGradient><linearGradient id="linear-gradient-12" x1="107.11" y1="25.69" x2="140.37" y2="25.69" xlink:href="#linear-gradient-10"/><linearGradient id="linear-gradient-13" x1="162.38" y1="25.69" x2="195.65" y2="25.69" xlink:href="#linear-gradient"/><linearGradient id="linear-gradient-14" x1="47.81" y1="49.3" x2="94.16" y2="49.3" xlink:href="#linear-gradient-11"/></defs><title>CRM-3 cold lead convert hot lead</title><path class="cls-1" d="M125.86,201.9c-27.53.47-50.07-22.54-50.07-50.08V91.6a2.82,2.82,0,0,1,2.82-2.82h22a2.83,2.83,0,0,1,2.83,2.82h0v60.57a21.9,21.9,0,0,0,20.72,22.07,21.59,21.59,0,0,0,22.37-20.76c0-.26,0-.52,0-.78V91.6a2.83,2.83,0,0,1,2.83-2.82h22a2.82,2.82,0,0,1,2.82,2.82h0v61.1a49.27,49.27,0,0,1-48.35,49.2Z"/><path class="cls-2" d="M125.33,174.23c-.28,0-.55,0-.83,0a21.9,21.9,0,0,1-20.72-22.07V91.6A2.83,2.83,0,0,0,101,88.77h-22a2.83,2.83,0,0,0-2.82,2.83v60.23c0,27.25,22.07,50,49.21,50.06Z"/><path class="cls-3" d="M103.78,106.5V91.65a2.87,2.87,0,0,0-2.85-2.88H78.7a2.87,2.87,0,0,0-2.85,2.88V106.5Z"/><path class="cls-3" d="M174.54,106.41V91.63a2.87,2.87,0,0,0-2.86-2.86H149.36a2.86,2.86,0,0,0-2.86,2.86h0v14.78Z"/><path class="cls-4" d="M169.9,80.52V72.38a1.72,1.72,0,1,0-3.43,0v8.14a1.72,1.72,0,0,0,3.43,0Z"/><path class="cls-5" d="M149.33,72.38v8.14a1.72,1.72,0,0,0,3.43,0V72.38a1.72,1.72,0,1,0-3.43,0Z"/><path class="cls-6" d="M132.19,72.38v8.14a1.72,1.72,0,0,0,3.43,0V72.38a1.72,1.72,0,1,0-3.43,0Z"/><path class="cls-7" d="M115.05,72.38v8.14a1.72,1.72,0,0,0,3.43,0V72.38a1.72,1.72,0,1,0-3.43,0Z"/><path class="cls-8" d="M99.62,82.23a1.71,1.71,0,0,0,1.72-1.71V72.38a1.72,1.72,0,1,0-3.43,0v8.14A1.7,1.7,0,0,0,99.62,82.23Z"/><path class="cls-9" d="M80.77,72.38v8.14a1.71,1.71,0,1,0,3.42,0V72.38a1.71,1.71,0,1,0-3.42,0Z"/><path class="cls-10" d="M188.46,35a16.42,16.42,0,0,1-18.9,0,19.13,19.13,0,0,0-13.72,18.35v6.73a3.42,3.42,0,0,0,3.42,3.43h39.5a3.43,3.43,0,0,0,3.43-3.43V53.39A19.14,19.14,0,0,0,188.46,35Z"/><circle class="cls-11" cx="179.63" cy="21.56" r="16.47"/><path class="cls-12" d="M133.19,35a16.42,16.42,0,0,1-18.9,0,19.15,19.15,0,0,0-13.73,18.35v6.73A3.43,3.43,0,0,0,104,63.55h39.5a3.43,3.43,0,0,0,3.43-3.43V53.39A19.15,19.15,0,0,0,133.19,35Z"/><circle class="cls-11" cx="125.67" cy="21.56" r="16.47"/><circle class="cls-11" cx="71.71" cy="21.56" r="16.47"/><circle class="cls-13" cx="71.31" cy="23.61" r="16.63"/><circle class="cls-14" cx="123.74" cy="25.69" r="16.63"/><circle class="cls-15" cx="179.01" cy="25.69" r="16.63"/><path class="cls-16" d="M80.44,35a16.42,16.42,0,0,1-18.9,0A19.14,19.14,0,0,0,47.81,53.39v6.73a3.43,3.43,0,0,0,3.43,3.43h39.5a3.42,3.42,0,0,0,3.42-3.43V53.39A19.13,19.13,0,0,0,80.44,35Z"/></svg>