<svg id="Layer_1" data-name="Layer 1" xmlns="http://www.w3.org/2000/svg" xmlns:xlink="http://www.w3.org/1999/xlink" viewBox="0 0 250 207"><defs><style>.cls-1{fill:url(#linear-gradient);}.cls-2{fill:url(#linear-gradient-2);}.cls-3{fill:url(#linear-gradient-3);}.cls-4{fill:url(#linear-gradient-4);}.cls-5{fill:url(#linear-gradient-5);}.cls-6{fill:url(#linear-gradient-6);}.cls-7{fill:url(#linear-gradient-7);}.cls-8{fill:url(#linear-gradient-8);}.cls-9{fill:url(#linear-gradient-9);}.cls-10{fill:url(#linear-gradient-10);}.cls-11{fill:url(#linear-gradient-11);}.cls-12{fill:url(#linear-gradient-12);}.cls-13{fill:url(#linear-gradient-13);}.cls-14{fill:url(#linear-gradient-14);}.cls-15{fill:url(#linear-gradient-15);}.cls-16{fill:url(#linear-gradient-16);}.cls-17{fill:url(#linear-gradient-17);}.cls-18{fill:url(#linear-gradient-18);}.cls-19{fill:url(#linear-gradient-19);}.cls-20{fill:url(#linear-gradient-20);}.cls-21{fill:url(#linear-gradient-21);}.cls-22{fill:url(#linear-gradient-22);}.cls-23{fill:url(#linear-gradient-23);}.cls-24{fill:url(#linear-gradient-24);}.cls-25{fill:url(#linear-gradient-25);}.cls-26{fill:url(#linear-gradient-26);}.cls-27{fill:url(#linear-gradient-27);}.cls-28{fill:url(#linear-gradient-28);}.cls-29{fill:url(#linear-gradient-29);}.cls-30{fill:url(#linear-gradient-30);}.cls-31{fill:url(#linear-gradient-31);}.cls-32{fill:url(#linear-gradient-32);}.cls-33{fill:url(#linear-gradient-33);}</style><linearGradient id="linear-gradient" x1="31.23" y1="177.87" x2="102.37" y2="177.87" gradientUnits="userSpaceOnUse"><stop offset="0" stop-color="#75f1b2"/><stop offset="0.26" stop-color="#4ee1a8"/><stop offset="0.59" stop-color="#24d09d"/><stop offset="0.85" stop-color="#0ac696"/><stop offset="1" stop-color="#00c293"/></linearGradient><linearGradient id="linear-gradient-2" x1="47.4" y1="139.07" x2="86.2" y2="139.07" xlink:href="#linear-gradient"/><linearGradient id="linear-gradient-3" x1="76.5" y1="100.27" x2="218.77" y2="100.27" gradientUnits="userSpaceOnUse"><stop offset="0" stop-color="#246ddf"/><stop offset="0.15" stop-color="#256bd7"/><stop offset="0.68" stop-color="#2663bd"/><stop offset="1" stop-color="#2760b3"/></linearGradient><linearGradient id="linear-gradient-4" x1="76.5" y1="51.77" x2="218.77" y2="51.77" gradientUnits="userSpaceOnUse"><stop offset="0" stop-color="#cddcf3"/><stop offset="0.57" stop-color="#e1e9f9"/><stop offset="1" stop-color="#ebeffc"/></linearGradient><linearGradient id="linear-gradient-5" x1="105.6" y1="134.22" x2="189.67" y2="134.22" xlink:href="#linear-gradient-3"/><linearGradient id="linear-gradient-6" x1="141.17" y1="116.43" x2="154.1" y2="116.43" xlink:href="#linear-gradient-3"/><linearGradient id="linear-gradient-7" x1="121.77" y1="29.13" x2="136.49" y2="29.13" xlink:href="#linear-gradient-3"/><linearGradient id="linear-gradient-8" x1="138.64" y1="30.75" x2="156.62" y2="30.75" gradientTransform="translate(79.38 -103.72) rotate(51.32)" xlink:href="#linear-gradient-3"/><linearGradient id="linear-gradient-9" x1="158.77" y1="29.13" x2="173.5" y2="29.13" xlink:href="#linear-gradient-3"/><linearGradient id="linear-gradient-10" x1="89.43" y1="64.7" x2="134.7" y2="64.7" gradientUnits="userSpaceOnUse"><stop offset="0" stop-color="#ffa243"/><stop offset="0.99" stop-color="#ffd25f"/></linearGradient><linearGradient id="linear-gradient-11" x1="148.09" y1="62.3" x2="211.13" y2="62.3" xlink:href="#linear-gradient"/><linearGradient id="linear-gradient-12" x1="112.07" y1="184.33" x2="118.53" y2="184.33" xlink:href="#linear-gradient-3"/><linearGradient id="linear-gradient-13" x1="125" y1="184.33" x2="131.47" y2="184.33" xlink:href="#linear-gradient-3"/><linearGradient id="linear-gradient-14" x1="137.93" y1="184.33" x2="144.4" y2="184.33" xlink:href="#linear-gradient-3"/><linearGradient id="linear-gradient-15" x1="150.87" y1="184.33" x2="157.33" y2="184.33" xlink:href="#linear-gradient-3"/><linearGradient id="linear-gradient-16" x1="202.6" y1="171.4" x2="209.07" y2="171.4" xlink:href="#linear-gradient-3"/><linearGradient id="linear-gradient-17" x1="202.6" y1="145.53" x2="209.07" y2="145.53" xlink:href="#linear-gradient-3"/><linearGradient id="linear-gradient-18" x1="202.6" y1="132.6" x2="209.07" y2="132.6" xlink:href="#linear-gradient-3"/><linearGradient id="linear-gradient-19" x1="202.6" y1="158.47" x2="209.07" y2="158.47" xlink:href="#linear-gradient-3"/><linearGradient id="linear-gradient-20" x1="57.1" y1="58.23" x2="63.57" y2="58.23" xlink:href="#linear-gradient-3"/><linearGradient id="linear-gradient-21" x1="44.17" y1="58.23" x2="50.63" y2="58.23" xlink:href="#linear-gradient-3"/><linearGradient id="linear-gradient-22" x1="31.23" y1="58.23" x2="37.7" y2="58.23" xlink:href="#linear-gradient-3"/><linearGradient id="linear-gradient-23" x1="31.23" y1="71.17" x2="37.7" y2="71.17" xlink:href="#linear-gradient-3"/><linearGradient id="linear-gradient-24" x1="31.23" y1="84.1" x2="37.7" y2="84.1" xlink:href="#linear-gradient-3"/><linearGradient id="linear-gradient-25" x1="31.23" y1="97.03" x2="37.7" y2="97.03" xlink:href="#linear-gradient-3"/><linearGradient id="linear-gradient-26" x1="31.23" y1="109.97" x2="37.7" y2="109.97" xlink:href="#linear-gradient-3"/><linearGradient id="linear-gradient-27" x1="31.23" y1="122.9" x2="37.7" y2="122.9" xlink:href="#linear-gradient-3"/><linearGradient id="linear-gradient-28" x1="31.23" y1="135.83" x2="37.7" y2="135.83" xlink:href="#linear-gradient-3"/><linearGradient id="linear-gradient-29" x1="163.8" y1="184.33" x2="170.27" y2="184.33" xlink:href="#linear-gradient-3"/><linearGradient id="linear-gradient-30" x1="176.73" y1="184.33" x2="183.2" y2="184.33" xlink:href="#linear-gradient-3"/><linearGradient id="linear-gradient-31" x1="189.67" y1="184.33" x2="196.13" y2="184.33" xlink:href="#linear-gradient-3"/><linearGradient id="linear-gradient-32" x1="202.6" y1="184.33" x2="209.07" y2="184.33" xlink:href="#linear-gradient-3"/><linearGradient id="linear-gradient-33" x1="202.6" y1="119.67" x2="209.07" y2="119.67" xlink:href="#linear-gradient-3"/></defs><title>live time monetiring</title><path class="cls-1" d="M102.37,184.33A25.87,25.87,0,0,0,76.5,158.47H57.1a25.87,25.87,0,0,0-25.87,25.86v12.94h71.14Z"/><circle class="cls-2" cx="66.8" cy="139.07" r="19.4"/><path class="cls-3" d="M89.43,106.73h116.4A12.93,12.93,0,0,0,218.77,93.8H76.5A12.93,12.93,0,0,0,89.43,106.73Z"/><path class="cls-4" d="M205.83,9.73H89.43A12.93,12.93,0,0,0,76.5,22.67V93.8H218.77V22.67A12.94,12.94,0,0,0,205.83,9.73Z"/><path class="cls-5" d="M126.44,127.77A26.6,26.6,0,0,0,105.6,142.3h84.07a26.61,26.61,0,0,0-20.84-14.53l-14.73-1.64H141.17Z"/><rect class="cls-6" x="141.17" y="106.73" width="12.93" height="19.4"/><path class="cls-7" d="M123.21,31.82l9.7,6.47,3.58-5.38-5.66-3.78,5.66-3.77L132.91,20l-9.7,6.46a3.23,3.23,0,0,0,0,5.38Z"/><rect class="cls-8" x="137.28" y="27.52" width="20.7" height="6.47" transform="translate(31.37 126.79) rotate(-51.32)"/><path class="cls-9" d="M162.36,38.29l9.7-6.47a3.23,3.23,0,0,0,0-5.38L162.36,20l-3.58,5.38,5.66,3.77-5.67,3.78Z"/><polygon class="cls-10" points="134.7 74.4 128.23 74.4 128.23 55 121.77 55 121.77 74.4 115.3 74.4 115.3 48.53 108.83 48.53 108.83 74.4 102.37 74.4 102.37 58.23 95.9 58.23 95.9 74.4 89.43 74.4 89.43 80.87 134.7 80.87 134.7 74.4"/><path class="cls-11" d="M153.64,79.3l8.16-13.6,10.25,5.13A3.24,3.24,0,0,0,176,70l14.1-16.92L207,67.19l4.14-5-19.4-16.17a3.23,3.23,0,0,0-4.55.41L172.65,63.9,162,58.58a3.25,3.25,0,0,0-4.22,1.22L148.09,76Z"/><rect class="cls-12" x="112.07" y="181.1" width="6.47" height="6.47"/><rect class="cls-13" x="125" y="181.1" width="6.47" height="6.47"/><rect class="cls-14" x="137.93" y="181.1" width="6.47" height="6.47"/><rect class="cls-15" x="150.87" y="181.1" width="6.47" height="6.47"/><rect class="cls-16" x="202.6" y="168.17" width="6.47" height="6.47"/><rect class="cls-17" x="202.6" y="142.3" width="6.47" height="6.47"/><rect class="cls-18" x="202.6" y="129.37" width="6.47" height="6.47"/><rect class="cls-19" x="202.6" y="155.23" width="6.47" height="6.47"/><rect class="cls-20" x="57.1" y="55" width="6.47" height="6.47"/><rect class="cls-21" x="44.17" y="55" width="6.47" height="6.47"/><rect class="cls-22" x="31.23" y="55" width="6.47" height="6.47"/><rect class="cls-23" x="31.23" y="67.93" width="6.47" height="6.47"/><rect class="cls-24" x="31.23" y="80.87" width="6.47" height="6.47"/><rect class="cls-25" x="31.23" y="93.8" width="6.47" height="6.47"/><rect class="cls-26" x="31.23" y="106.73" width="6.47" height="6.47"/><rect class="cls-27" x="31.23" y="119.67" width="6.47" height="6.47"/><rect class="cls-28" x="31.23" y="132.6" width="6.47" height="6.47"/><rect class="cls-29" x="163.8" y="181.1" width="6.47" height="6.47"/><rect class="cls-30" x="176.73" y="181.1" width="6.47" height="6.47"/><rect class="cls-31" x="189.67" y="181.1" width="6.47" height="6.47"/><rect class="cls-32" x="202.6" y="181.1" width="6.47" height="6.47"/><rect class="cls-33" x="202.6" y="116.43" width="6.47" height="6.47"/></svg>