<svg id="Layer_1" data-name="Layer 1" xmlns="http://www.w3.org/2000/svg" xmlns:xlink="http://www.w3.org/1999/xlink" viewBox="0 0 250 207"><defs><style>.cls-1{opacity:0.6;}.cls-2{fill:url(#linear-gradient);}.cls-3{fill:url(#linear-gradient-2);}.cls-4{fill:url(#linear-gradient-3);}.cls-5{fill:url(#linear-gradient-4);}.cls-6{fill:url(#linear-gradient-5);}.cls-7{fill:#e6e9ed;}.cls-8{opacity:0.2;}.cls-9{fill:url(#linear-gradient-6);}.cls-10{fill:url(#linear-gradient-7);}.cls-11{fill:url(#linear-gradient-8);}.cls-12{fill:url(#linear-gradient-9);}.cls-13{fill:url(#linear-gradient-10);}.cls-14{fill:#b4dd7f;}.cls-15{fill:url(#linear-gradient-11);}.cls-16{fill:#fff;}.cls-17,.cls-18,.cls-19,.cls-20{opacity:0.7;}.cls-17{fill:url(#linear-gradient-12);}.cls-18{fill:url(#linear-gradient-13);}.cls-19{fill:url(#linear-gradient-14);}.cls-20{fill:url(#linear-gradient-15);}</style><linearGradient id="linear-gradient" x1="4.82" y1="118.04" x2="246.28" y2="118.04" gradientUnits="userSpaceOnUse"><stop offset="0" stop-color="#cddcf3"/><stop offset="0.57" stop-color="#e1e9f9"/><stop offset="1" stop-color="#ebeffc"/></linearGradient><linearGradient id="linear-gradient-2" x1="34.38" y1="124.85" x2="117.5" y2="124.85" gradientUnits="userSpaceOnUse"><stop offset="0" stop-color="#246ddf"/><stop offset="0.15" stop-color="#256bd7"/><stop offset="0.68" stop-color="#2663bd"/><stop offset="1" stop-color="#2760b3"/></linearGradient><linearGradient id="linear-gradient-3" x1="68.81" y1="83.29" x2="117.5" y2="83.29" gradientUnits="userSpaceOnUse"><stop offset="0" stop-color="#75f1b2"/><stop offset="0.26" stop-color="#4ee1a8"/><stop offset="0.59" stop-color="#24d09d"/><stop offset="0.85" stop-color="#0ac696"/><stop offset="1" stop-color="#00c293"/></linearGradient><linearGradient id="linear-gradient-4" x1="34.38" y1="76.15" x2="103.23" y2="76.15" xlink:href="#linear-gradient-2"/><linearGradient id="linear-gradient-5" x1="20.11" y1="100.5" x2="68.81" y2="100.5" xlink:href="#linear-gradient-3"/><linearGradient id="linear-gradient-6" x1="142.8" y1="167.47" x2="229.03" y2="167.47" gradientUnits="userSpaceOnUse"><stop offset="0" stop-color="#337fe5"/><stop offset="1" stop-color="#184dc5"/></linearGradient><linearGradient id="linear-gradient-7" x1="142.8" y1="124.35" x2="229.03" y2="124.35" xlink:href="#linear-gradient-6"/><linearGradient id="linear-gradient-8" x1="142.8" y1="81.23" x2="229.03" y2="81.23" gradientUnits="userSpaceOnUse"><stop offset="0" stop-color="#ffa243"/><stop offset="0.99" stop-color="#ffd25f"/></linearGradient><linearGradient id="linear-gradient-9" x1="142.8" y1="123.23" x2="229.03" y2="123.23" xlink:href="#linear-gradient-8"/><linearGradient id="linear-gradient-10" x1="142.8" y1="167.23" x2="229.03" y2="167.23" xlink:href="#linear-gradient-8"/><linearGradient id="linear-gradient-11" x1="4.42" y1="24.77" x2="246.28" y2="24.77" xlink:href="#linear-gradient-2"/><linearGradient id="linear-gradient-12" x1="18.02" y1="164.89" x2="24.17" y2="164.89" xlink:href="#linear-gradient-2"/><linearGradient id="linear-gradient-13" x1="30.33" y1="164.89" x2="98.04" y2="164.89" xlink:href="#linear-gradient-2"/><linearGradient id="linear-gradient-14" x1="18.02" y1="177.2" x2="36.48" y2="177.2" xlink:href="#linear-gradient-2"/><linearGradient id="linear-gradient-15" x1="42.64" y1="177.2" x2="98.04" y2="177.2" xlink:href="#linear-gradient-2"/></defs><title>crm growth icon 1</title><g class="cls-1"><path class="cls-2" d="M4.82,40.43V187a8.65,8.65,0,0,0,8.62,8.62H237.65a8.65,8.65,0,0,0,8.63-8.62V40.43Z"/></g><path class="cls-3" d="M68.81,100.5H117.5a48.69,48.69,0,0,1-83.12,34.43Z"/><path class="cls-4" d="M117.5,100.5H68.81l34.42-34.43A48.54,48.54,0,0,1,117.5,100.5Z"/><path class="cls-5" d="M103.23,66.07,68.81,100.5,34.38,66.07a48.68,48.68,0,0,1,68.85,0Z"/><path class="cls-6" d="M68.81,100.5,34.38,134.93a48.67,48.67,0,0,1,0-68.86Z"/><path class="cls-7" d="M155.73,137.29H216.1v17.24H155.73Z"/><path class="cls-7" d="M155.73,94.17H216.1v17.25H155.73Z"/><g class="cls-8"><path class="cls-9" d="M229,163.16v8.62a8.65,8.65,0,0,1-8.62,8.62h-69a8.65,8.65,0,0,1-8.62-8.62v-8.62a8.65,8.65,0,0,1,8.62-8.63h69A8.65,8.65,0,0,1,229,163.16Z"/></g><g class="cls-8"><path class="cls-10" d="M229,120v8.62a8.65,8.65,0,0,1-8.62,8.63h-69a8.65,8.65,0,0,1-8.62-8.63V120a8.65,8.65,0,0,1,8.62-8.62h69A8.65,8.65,0,0,1,229,120Z"/></g><path class="cls-11" d="M229,76.92v8.63a8.65,8.65,0,0,1-8.62,8.62h-69a8.65,8.65,0,0,1-8.62-8.62V76.92a8.65,8.65,0,0,1,8.62-8.62h69A8.65,8.65,0,0,1,229,76.92Z"/><path class="cls-12" d="M229,118.92v8.63a8.65,8.65,0,0,1-8.62,8.62h-69a8.65,8.65,0,0,1-8.62-8.62v-8.63a8.65,8.65,0,0,1,8.62-8.62h69A8.65,8.65,0,0,1,229,118.92Z"/><path class="cls-13" d="M229,162.92v8.63a8.65,8.65,0,0,1-8.62,8.62h-69a8.65,8.65,0,0,1-8.62-8.62v-8.63a8.65,8.65,0,0,1,8.62-8.62h69A8.65,8.65,0,0,1,229,162.92Z"/><path class="cls-14" d="M4.82,42.43V16.56a8.65,8.65,0,0,1,8.62-8.63H108.3a17.25,17.25,0,0,0,17.25,17.25H142.8l14.35,17.25Z"/><path class="cls-15" d="M246.28,17.66V42.43H4.42V17.66A10.55,10.55,0,0,1,15,7.11H235.73A10.55,10.55,0,0,1,246.28,17.66Z"/><path class="cls-16" d="M69,19.78H81.5v12.5H69Z"/><path class="cls-16" d="M19,19.78H31.51v12.5H19Z"/><path class="cls-16" d="M44,19.78h12.5v12.5H44Z"/><path class="cls-17" d="M18,161.81h6.15V168H18Z"/><path class="cls-18" d="M30.33,161.81H98V168H30.33Z"/><path class="cls-19" d="M18,174.12H36.48v6.16H18Z"/><path class="cls-20" d="M42.64,174.12H98v6.16H42.64Z"/></svg>