<svg id="Layer_1" data-name="Layer 1" xmlns="http://www.w3.org/2000/svg" xmlns:xlink="http://www.w3.org/1999/xlink" viewBox="0 0 250 207"><defs><style>.cls-1{fill:#b0d0ff;}.cls-2{fill:url(#linear-gradient);}.cls-3{fill:url(#linear-gradient-2);}.cls-4{fill:url(#linear-gradient-3);}.cls-5{fill:url(#linear-gradient-4);}.cls-6{fill:url(#linear-gradient-5);}.cls-7{fill:url(#linear-gradient-6);}.cls-8{fill:#b0d3f0;}.cls-9{fill:url(#linear-gradient-7);}.cls-10{fill:url(#linear-gradient-8);}.cls-11{fill:#75f1b2;}.cls-12{fill:#fff;}.cls-13{fill:url(#linear-gradient-9);}.cls-14{fill:url(#linear-gradient-10);}.cls-15{fill:url(#linear-gradient-11);}.cls-16{fill:url(#linear-gradient-12);}.cls-17{fill:url(#linear-gradient-13);}.cls-18{fill:url(#linear-gradient-14);}</style><linearGradient id="linear-gradient" x1="30.95" y1="146.63" x2="189.39" y2="146.63" gradientUnits="userSpaceOnUse"><stop offset="0" stop-color="#246ddf"/><stop offset="0.15" stop-color="#256bd7"/><stop offset="0.68" stop-color="#2663bd"/><stop offset="1" stop-color="#2760b3"/></linearGradient><linearGradient id="linear-gradient-2" x1="43.01" y1="147.18" x2="56.3" y2="147.18" gradientUnits="userSpaceOnUse"><stop offset="0" stop-color="#ffa243"/><stop offset="0.99" stop-color="#ffd25f"/></linearGradient><linearGradient id="linear-gradient-3" x1="30.95" y1="86.84" x2="189.39" y2="86.84" xlink:href="#linear-gradient"/><linearGradient id="linear-gradient-4" x1="43.01" y1="87.37" x2="56.3" y2="87.37" xlink:href="#linear-gradient-2"/><linearGradient id="linear-gradient-5" x1="30.95" y1="27.05" x2="189.39" y2="27.05" xlink:href="#linear-gradient"/><linearGradient id="linear-gradient-6" x1="43.01" y1="27.55" x2="56.3" y2="27.55" xlink:href="#linear-gradient-2"/><linearGradient id="linear-gradient-7" x1="129.6" y1="139.18" x2="222.28" y2="139.18" gradientUnits="userSpaceOnUse"><stop offset="0" stop-color="#75f1b2"/><stop offset="0.26" stop-color="#4ee1a8"/><stop offset="0.59" stop-color="#24d09d"/><stop offset="0.85" stop-color="#0ac696"/><stop offset="1" stop-color="#00c293"/></linearGradient><linearGradient id="linear-gradient-8" x1="141.56" y1="139.66" x2="207.33" y2="139.66" xlink:href="#linear-gradient-7"/><linearGradient id="linear-gradient-9" x1="65.5" y1="26.5" x2="84.5" y2="26.5" xlink:href="#linear-gradient-7"/><linearGradient id="linear-gradient-10" x1="89.5" y1="26.5" x2="108.5" y2="26.5" xlink:href="#linear-gradient-7"/><linearGradient id="linear-gradient-11" x1="65.5" y1="86.5" x2="84.5" y2="86.5" xlink:href="#linear-gradient-7"/><linearGradient id="linear-gradient-12" x1="89.5" y1="86.5" x2="108.5" y2="86.5" xlink:href="#linear-gradient-7"/><linearGradient id="linear-gradient-13" x1="65.5" y1="146.5" x2="84.5" y2="146.5" xlink:href="#linear-gradient-7"/><linearGradient id="linear-gradient-14" x1="89.5" y1="146.5" x2="108.5" y2="146.5" xlink:href="#linear-gradient-7"/></defs><title>CRM-2 maintaining security and privacy</title><rect class="cls-1" x="102.7" y="163.07" width="11.96" height="26.91"/><polygon class="cls-1" points="168.47 127.47 168.47 103.28 48.89 103.28 48.89 129.86 168.47 127.47"/><path class="cls-2" d="M37.6,127.19H182.75a6.64,6.64,0,0,1,6.64,6.65v25.57a6.64,6.64,0,0,1-6.64,6.65H37.6A6.65,6.65,0,0,1,31,159.41V133.84A6.65,6.65,0,0,1,37.6,127.19Z"/><circle class="cls-3" cx="49.66" cy="147.18" r="6.65"/><polygon class="cls-1" points="168.47 67.68 168.47 43.49 48.89 43.49 48.89 70.07 168.47 67.68"/><path class="cls-4" d="M37.6,67.4H182.75a6.64,6.64,0,0,1,6.64,6.65V99.62a6.64,6.64,0,0,1-6.64,6.65H37.6A6.65,6.65,0,0,1,31,99.62V74.05A6.65,6.65,0,0,1,37.6,67.4Z"/><circle class="cls-5" cx="49.66" cy="87.37" r="6.65"/><path class="cls-6" d="M37.6,7.61H182.75a6.64,6.64,0,0,1,6.64,6.65V39.83a6.64,6.64,0,0,1-6.64,6.65H37.6A6.65,6.65,0,0,1,31,39.83V14.26A6.65,6.65,0,0,1,37.6,7.61Z"/><circle class="cls-7" cx="49.66" cy="27.55" r="6.65"/><path class="cls-8" d="M186.4,198.94H33c-1.83,1.41-3.32-.08-2.09-1.91v-6.65c-1.23-1.83.26-3.32,2.09-3.39H186.4Z"/><path class="cls-9" d="M215.63,79.36A6.65,6.65,0,0,1,222.28,86v42.58s0,44-46.34,70.4c-46.34-26.4-46.34-70.4-46.34-70.4V86a6.65,6.65,0,0,1,6.65-6.65Z"/><path class="cls-10" d="M174.45,185c-32.49-22.38-32.89-54.42-32.89-54.76V94.31h65.77v35.94C207.31,131.56,206.45,163,174.45,185Z"/><path class="cls-11" d="M175.93,188a3.32,3.32,0,0,1-1.87-6.07c31-21.11,31.76-50.81,33.27-52.06V97.34c-3.33,0-4.81-1.49-4.81-3.33a3.32,3.32,0,0,1,3.32-3.32c3.67,0,6.65,3,7.47,6.65V130c-.84,1.44-1.72,34.47-35.51,57.5A3.28,3.28,0,0,1,175.93,188Z"/><path class="cls-11" d="M156,168.87a3.32,3.32,0,0,1-2.69-1.38A79.34,79.34,0,0,1,138.57,130V97.34c.81-3.67,3.78-6.65,7.46-6h36.55c1.83-.63,3.32.86,3.32,2.69a3.27,3.27,0,0,1-3.32,3.29h-38V130c2.44,12.18,6.83,23.85,14.14,33.64a3.33,3.33,0,0,1-2.7,5.28Z"/><path class="cls-12" d="M168.87,147.18a3.33,3.33,0,0,1-2.35-1L160.29,140a3.32,3.32,0,0,1,4.7-4.7l3.88,3.88,24.65-24.65a3.32,3.32,0,0,1,4.7,4.7l-27,27A3.33,3.33,0,0,1,168.87,147.18Z"/><rect class="cls-13" x="65.5" y="23.5" width="19" height="6"/><rect class="cls-14" x="89.5" y="23.5" width="19" height="6"/><rect class="cls-15" x="65.5" y="83.5" width="19" height="6"/><rect class="cls-16" x="89.5" y="83.5" width="19" height="6"/><rect class="cls-17" x="65.5" y="143.5" width="19" height="6"/><rect class="cls-18" x="89.5" y="143.5" width="19" height="6"/></svg>