<svg id="Layer_1" data-name="Layer 1" xmlns="http://www.w3.org/2000/svg" xmlns:xlink="http://www.w3.org/1999/xlink" viewBox="0 0 250 207"><defs><style>.cls-1{fill:url(#linear-gradient);}.cls-2{fill:url(#linear-gradient-2);}.cls-3{fill:url(#linear-gradient-3);}.cls-4{fill:url(#linear-gradient-4);}.cls-5{fill:url(#linear-gradient-5);}.cls-6{fill:url(#linear-gradient-6);}.cls-7{fill:url(#linear-gradient-7);}.cls-8{fill:#b8cbeb;}.cls-9{fill:url(#linear-gradient-8);}.cls-10{fill:url(#linear-gradient-9);}.cls-11{fill:url(#linear-gradient-10);}</style><linearGradient id="linear-gradient" x1="73.88" y1="33.49" x2="180.37" y2="33.49" gradientUnits="userSpaceOnUse"><stop offset="0" stop-color="#ffa243"/><stop offset="0.99" stop-color="#ffd25f"/></linearGradient><linearGradient id="linear-gradient-2" x1="144.24" y1="81.4" x2="219.55" y2="81.4" gradientUnits="userSpaceOnUse"><stop offset="0" stop-color="#75f1b2"/><stop offset="0.26" stop-color="#4ee1a8"/><stop offset="0.59" stop-color="#24d09d"/><stop offset="0.85" stop-color="#0ac696"/><stop offset="1" stop-color="#00c293"/></linearGradient><linearGradient id="linear-gradient-3" x1="144.24" y1="108" x2="171.62" y2="108" xlink:href="#linear-gradient-2"/><linearGradient id="linear-gradient-4" x1="34.71" y1="81.4" x2="110.01" y2="81.4" xlink:href="#linear-gradient-2"/><linearGradient id="linear-gradient-5" x1="82.63" y1="107.99" x2="110.01" y2="107.99" xlink:href="#linear-gradient-2"/><linearGradient id="linear-gradient-6" x1="89.48" y1="81.4" x2="164.78" y2="81.4" xlink:href="#linear-gradient-2"/><linearGradient id="linear-gradient-7" x1="51.82" y1="158.41" x2="168.2" y2="158.41" gradientUnits="userSpaceOnUse"><stop offset="0" stop-color="#cddbf1"/><stop offset="0.57" stop-color="#cfdcf2"/><stop offset="0.77" stop-color="#d6e1f5"/><stop offset="0.91" stop-color="#e1e9f9"/><stop offset="1" stop-color="#edf1fe"/></linearGradient><linearGradient id="linear-gradient-8" x1="51.82" y1="136.31" x2="78.06" y2="136.31" gradientUnits="userSpaceOnUse"><stop offset="0" stop-color="#246ddf"/><stop offset="0.15" stop-color="#256bd7"/><stop offset="0.68" stop-color="#2663bd"/><stop offset="1" stop-color="#2760b3"/></linearGradient><linearGradient id="linear-gradient-9" x1="24.44" y1="120.77" x2="72.36" y2="120.77" xlink:href="#linear-gradient-7"/><linearGradient id="linear-gradient-10" x1="24.44" y1="119.05" x2="58.9" y2="119.05" xlink:href="#linear-gradient-8"/></defs><title>client relationship</title><path class="cls-1" d="M178.34,32l2-4.75L165.85,12.75l-10.14,6.6a54.36,54.36,0,0,0-15.82-6.55L137.4,1H116.86l-2.5,11.83a54.36,54.36,0,0,0-15.82,6.55L88.4,12.75,73.88,27.28l5.26,12.54V40l.07,26h6.84c0-.64,0-1.27,0-1.91,0-.21,0-.42,0-.63,0-.42.06-.83.09-1.24,0-.26,0-.52.08-.77s.09-.71.14-1.06.07-.57.11-.85.07-.35.1-.53c.14-.8.3-1.6.48-2.39,0-.09,0-.19.07-.29.12-.48.24-1,.38-1.43v0a41.19,41.19,0,0,1,6-12.51v0a41.06,41.06,0,0,1,67-.21l0,0a41,41,0,0,1,7.11,17l.06.33c0,.31.09.62.14.94l.12,1c0,.27.06.54.08.81s.07.81.09,1.22c0,.22,0,.43,0,.65,0,.63,0,1.27,0,1.91h6.85l0-26.18L178.35,32Z"/><path class="cls-2" d="M219.55,124.19V107.5a13.7,13.7,0,0,0-10.38-13.29l-17-4.25V83.77A20.52,20.52,0,0,0,202.43,66V60c0-11.25-8.67-21.05-19.9-21.39a20.54,20.54,0,0,0-21.17,20.53V66a20.51,20.51,0,0,0,10.26,17.77V90l-17,4.26a13.68,13.68,0,0,0-10.37,13.28v16.69Z"/><path class="cls-3" d="M171.62,107.5a20.48,20.48,0,0,0-7.36-15.7l-9.65,2.42a13.68,13.68,0,0,0-10.37,13.28v16.69h27.38Z"/><path class="cls-4" d="M110,124.19V107.5A13.69,13.69,0,0,0,99.64,94.21L82.63,90V83.77A20.5,20.5,0,0,0,92.9,66V60C92.9,48.77,84.23,39,73,38.63A20.54,20.54,0,0,0,51.82,59.16V66A20.52,20.52,0,0,0,62.09,83.77V90l-17,4.26A13.68,13.68,0,0,0,34.71,107.5v16.69Z"/><path class="cls-5" d="M110,107.5A13.69,13.69,0,0,0,99.64,94.21L90,91.8a20.46,20.46,0,0,0-7.37,15.7v16.69H110Z"/><path class="cls-6" d="M164.78,124.19V107.5a13.7,13.7,0,0,0-10.37-13.29L137.4,90V83.77A20.5,20.5,0,0,0,147.66,66V60c0-11.25-8.66-21.05-19.9-21.39a20.54,20.54,0,0,0-21.17,20.53V66a20.52,20.52,0,0,0,10.27,17.77V90l-17,4.26A13.67,13.67,0,0,0,89.48,107.5v16.69Z"/><path class="cls-7" d="M165.85,163.14l-28.92-26-5.51-19.77-15.67-5A38.79,38.79,0,0,0,104,110.5a38.22,38.22,0,0,0-8.38.92l-40.35,9.35-3.43,27.38L76,163.31l43.9,36.61,5.3,4.66a7,7,0,0,0,4.62,1.75h.63A7,7,0,0,0,134.88,194a9.08,9.08,0,0,0,5.79,2.09,7,7,0,0,0,4.48-12.36L132,172.77l13.69,11.4a7,7,0,0,0,4.48,1.63h.74a7,7,0,0,0,4.48-12.37l.54.45a7,7,0,0,0,4.54,1.65h.6a7.11,7.11,0,0,0,4.75-12.39Z"/><path class="cls-8" d="M165.85,163.14l-28.92-26a10.39,10.39,0,0,0-12.26-1.18l-12.75,7.65a8.05,8.05,0,0,1-12.18-6.9V136a8.05,8.05,0,0,1,4.45-7.19l19.1-9.54a18.08,18.08,0,0,1,8.13-1.93,18.35,18.35,0,0,1,5,.7l21.51,6.15h3.43l65-34.23h3.42v44.5l-61.61,30.8Z"/><path class="cls-8" d="M127.13,168.68l-4.76,4.95,19,15.81a13.83,13.83,0,0,0,5.56,2.75,6.93,6.93,0,0,0-1.75-8.49Z"/><path class="cls-8" d="M106.59,195.65A7.25,7.25,0,0,0,119,200.78l6-6a7.26,7.26,0,1,0-10.27-10.27l-6,6A7.25,7.25,0,0,0,106.59,195.65Z"/><path class="cls-8" d="M96.32,185.38a7.27,7.27,0,0,0,12.4,5.14l6-6a7.26,7.26,0,0,0-10.27-10.27l-6,6A7.31,7.31,0,0,0,96.32,185.38Z"/><path class="cls-8" d="M86.05,175.11a7.27,7.27,0,0,0,12.4,5.14l6-6A7.26,7.26,0,0,0,94.2,164l-6,6A7.27,7.27,0,0,0,86.05,175.11Z"/><path class="cls-8" d="M99,168.8a14.1,14.1,0,0,0,3.53-6.17A7.18,7.18,0,0,0,94.2,164l-6,6a7.15,7.15,0,0,0-1.33,8.38A14.17,14.17,0,0,0,93,174.82Z"/><path class="cls-8" d="M109.3,179.07a14.08,14.08,0,0,0,3.54-6.17,7.2,7.2,0,0,0-8.38,1.33l-6,6a7.31,7.31,0,0,0-2.13,5.14,7.22,7.22,0,0,0,.8,3.24,14.06,14.06,0,0,0,6.17-3.53Z"/><path class="cls-8" d="M119.57,189.34a14.17,14.17,0,0,0,3.54-6.17,7.15,7.15,0,0,0-8.38,1.33l-6,6a7.27,7.27,0,0,0-2.13,5.14,7.09,7.09,0,0,0,.8,3.24,14.15,14.15,0,0,0,6.17-3.53Z"/><path class="cls-8" d="M75.78,164.85A7.26,7.26,0,0,0,88.18,170l6-6a7.26,7.26,0,0,0-5.13-12.4,7.21,7.21,0,0,0-5.13,2.13l-6,6A7.27,7.27,0,0,0,75.78,164.85Z"/><path class="cls-9" d="M78.06,115.48l-22.81,5.29-3.43,27.38,14.33,9Z"/><path class="cls-10" d="M72.36,110.5,58.67,158.41H55.25L24.44,148.15v-65h6.85l41.07,23.95Z"/><path class="cls-11" d="M58.9,99.22,31.29,83.12H24.44v65L45,155l13.69-54.76Z"/><path class="cls-8" d="M137.4,158.41l-4.76,5,19,15.81a13.79,13.79,0,0,0,5.56,2.76,6.94,6.94,0,0,0-1.75-8.5Z"/></svg>